<mxfile host="app.diagrams.net" modified="2023-03-18T13:35:39.013Z" agent="5.0 (Windows NT 10.0; Win64; x64) AppleWebKit/537.36 (KHTML, like Gecko) Chrome/111.0.0.0 Safari/537.36 Edg/111.0.1661.41" etag="w-cLJbgLBFxk1zC2JUJl" version="21.0.6" type="github">
  <diagram name="第 1 页" id="eE0zwkkA_F4gMZvxgr15">
    <mxGraphModel dx="1179" dy="674" grid="1" gridSize="10" guides="1" tooltips="1" connect="1" arrows="1" fold="1" page="1" pageScale="1" pageWidth="827" pageHeight="1169" math="0" shadow="0">
      <root>
        <mxCell id="0" />
        <mxCell id="1" parent="0" />
        <mxCell id="knWHT604KcFnY_2CCrJP-1" value="管理员" style="shape=umlLifeline;perimeter=lifelinePerimeter;whiteSpace=wrap;html=1;container=1;dropTarget=0;collapsible=0;recursiveResize=0;outlineConnect=0;portConstraint=eastwest;newEdgeStyle={&quot;edgeStyle&quot;:&quot;elbowEdgeStyle&quot;,&quot;elbow&quot;:&quot;vertical&quot;,&quot;curved&quot;:0,&quot;rounded&quot;:0};" vertex="1" parent="1">
          <mxGeometry x="170" y="110" width="100" height="650" as="geometry" />
        </mxCell>
        <mxCell id="knWHT604KcFnY_2CCrJP-46" value="" style="html=1;points=[];perimeter=orthogonalPerimeter;outlineConnect=0;targetShapes=umlLifeline;portConstraint=eastwest;newEdgeStyle={&quot;edgeStyle&quot;:&quot;elbowEdgeStyle&quot;,&quot;elbow&quot;:&quot;vertical&quot;,&quot;curved&quot;:0,&quot;rounded&quot;:0};" vertex="1" parent="knWHT604KcFnY_2CCrJP-1">
          <mxGeometry x="46.5" y="370" width="10" height="80" as="geometry" />
        </mxCell>
        <mxCell id="knWHT604KcFnY_2CCrJP-3" value="系统控制模块" style="shape=umlLifeline;perimeter=lifelinePerimeter;whiteSpace=wrap;html=1;container=1;dropTarget=0;collapsible=0;recursiveResize=0;outlineConnect=0;portConstraint=eastwest;newEdgeStyle={&quot;edgeStyle&quot;:&quot;elbowEdgeStyle&quot;,&quot;elbow&quot;:&quot;vertical&quot;,&quot;curved&quot;:0,&quot;rounded&quot;:0};" vertex="1" parent="1">
          <mxGeometry x="320" y="110" width="100" height="650" as="geometry" />
        </mxCell>
        <mxCell id="knWHT604KcFnY_2CCrJP-33" value="" style="html=1;points=[];perimeter=orthogonalPerimeter;outlineConnect=0;targetShapes=umlLifeline;portConstraint=eastwest;newEdgeStyle={&quot;edgeStyle&quot;:&quot;elbowEdgeStyle&quot;,&quot;elbow&quot;:&quot;vertical&quot;,&quot;curved&quot;:0,&quot;rounded&quot;:0};" vertex="1" parent="knWHT604KcFnY_2CCrJP-3">
          <mxGeometry x="45" y="90" width="10" height="200" as="geometry" />
        </mxCell>
        <mxCell id="knWHT604KcFnY_2CCrJP-42" value="" style="html=1;points=[];perimeter=orthogonalPerimeter;outlineConnect=0;targetShapes=umlLifeline;portConstraint=eastwest;newEdgeStyle={&quot;edgeStyle&quot;:&quot;elbowEdgeStyle&quot;,&quot;elbow&quot;:&quot;vertical&quot;,&quot;curved&quot;:0,&quot;rounded&quot;:0};" vertex="1" parent="knWHT604KcFnY_2CCrJP-3">
          <mxGeometry x="45" y="350" width="10" height="230" as="geometry" />
        </mxCell>
        <mxCell id="knWHT604KcFnY_2CCrJP-8" value="数据存储模块" style="shape=umlLifeline;perimeter=lifelinePerimeter;whiteSpace=wrap;html=1;container=1;dropTarget=0;collapsible=0;recursiveResize=0;outlineConnect=0;portConstraint=eastwest;newEdgeStyle={&quot;edgeStyle&quot;:&quot;elbowEdgeStyle&quot;,&quot;elbow&quot;:&quot;vertical&quot;,&quot;curved&quot;:0,&quot;rounded&quot;:0};" vertex="1" parent="1">
          <mxGeometry x="460" y="110" width="100" height="640" as="geometry" />
        </mxCell>
        <mxCell id="knWHT604KcFnY_2CCrJP-39" value="" style="html=1;points=[];perimeter=orthogonalPerimeter;outlineConnect=0;targetShapes=umlLifeline;portConstraint=eastwest;newEdgeStyle={&quot;edgeStyle&quot;:&quot;elbowEdgeStyle&quot;,&quot;elbow&quot;:&quot;vertical&quot;,&quot;curved&quot;:0,&quot;rounded&quot;:0};" vertex="1" parent="knWHT604KcFnY_2CCrJP-8">
          <mxGeometry x="45" y="190" width="10" height="80" as="geometry" />
        </mxCell>
        <mxCell id="knWHT604KcFnY_2CCrJP-54" value="" style="html=1;points=[];perimeter=orthogonalPerimeter;outlineConnect=0;targetShapes=umlLifeline;portConstraint=eastwest;newEdgeStyle={&quot;edgeStyle&quot;:&quot;elbowEdgeStyle&quot;,&quot;elbow&quot;:&quot;vertical&quot;,&quot;curved&quot;:0,&quot;rounded&quot;:0};" vertex="1" parent="knWHT604KcFnY_2CCrJP-8">
          <mxGeometry x="45" y="520" width="10" height="40" as="geometry" />
        </mxCell>
        <mxCell id="knWHT604KcFnY_2CCrJP-28" value="用电安全隐患分析" style="shape=umlLifeline;perimeter=lifelinePerimeter;whiteSpace=wrap;html=1;container=1;dropTarget=0;collapsible=0;recursiveResize=0;outlineConnect=0;portConstraint=eastwest;newEdgeStyle={&quot;edgeStyle&quot;:&quot;elbowEdgeStyle&quot;,&quot;elbow&quot;:&quot;vertical&quot;,&quot;curved&quot;:0,&quot;rounded&quot;:0};" vertex="1" parent="1">
          <mxGeometry x="590" y="110" width="100" height="650" as="geometry" />
        </mxCell>
        <mxCell id="knWHT604KcFnY_2CCrJP-36" value="" style="html=1;points=[];perimeter=orthogonalPerimeter;outlineConnect=0;targetShapes=umlLifeline;portConstraint=eastwest;newEdgeStyle={&quot;edgeStyle&quot;:&quot;elbowEdgeStyle&quot;,&quot;elbow&quot;:&quot;vertical&quot;,&quot;curved&quot;:0,&quot;rounded&quot;:0};" vertex="1" parent="knWHT604KcFnY_2CCrJP-28">
          <mxGeometry x="45" y="100" width="10" height="80" as="geometry" />
        </mxCell>
        <mxCell id="knWHT604KcFnY_2CCrJP-49" value="" style="html=1;points=[];perimeter=orthogonalPerimeter;outlineConnect=0;targetShapes=umlLifeline;portConstraint=eastwest;newEdgeStyle={&quot;edgeStyle&quot;:&quot;elbowEdgeStyle&quot;,&quot;elbow&quot;:&quot;vertical&quot;,&quot;curved&quot;:0,&quot;rounded&quot;:0};" vertex="1" parent="knWHT604KcFnY_2CCrJP-28">
          <mxGeometry x="45" y="460" width="10" height="40" as="geometry" />
        </mxCell>
        <mxCell id="knWHT604KcFnY_2CCrJP-34" value="模型切换" style="html=1;verticalAlign=bottom;endArrow=block;edgeStyle=elbowEdgeStyle;elbow=vertical;curved=0;rounded=0;" edge="1" target="knWHT604KcFnY_2CCrJP-33" parent="1" source="knWHT604KcFnY_2CCrJP-1">
          <mxGeometry relative="1" as="geometry">
            <mxPoint x="250" y="200" as="sourcePoint" />
            <Array as="points">
              <mxPoint x="320" y="200" />
            </Array>
          </mxGeometry>
        </mxCell>
        <mxCell id="knWHT604KcFnY_2CCrJP-35" value="返回状态码" style="html=1;verticalAlign=bottom;endArrow=open;dashed=1;endSize=8;edgeStyle=elbowEdgeStyle;elbow=vertical;curved=0;rounded=0;" edge="1" source="knWHT604KcFnY_2CCrJP-33" parent="1" target="knWHT604KcFnY_2CCrJP-1">
          <mxGeometry relative="1" as="geometry">
            <mxPoint x="250" y="275" as="targetPoint" />
            <Array as="points">
              <mxPoint x="320" y="390" />
            </Array>
          </mxGeometry>
        </mxCell>
        <mxCell id="knWHT604KcFnY_2CCrJP-37" value="更改算法模型" style="html=1;verticalAlign=bottom;endArrow=block;edgeStyle=elbowEdgeStyle;elbow=vertical;curved=0;rounded=0;" edge="1" target="knWHT604KcFnY_2CCrJP-36" parent="1" source="knWHT604KcFnY_2CCrJP-33">
          <mxGeometry relative="1" as="geometry">
            <mxPoint x="400" y="210" as="sourcePoint" />
            <Array as="points">
              <mxPoint x="520" y="220" />
            </Array>
          </mxGeometry>
        </mxCell>
        <mxCell id="knWHT604KcFnY_2CCrJP-38" value="返回状态码" style="html=1;verticalAlign=bottom;endArrow=open;dashed=1;endSize=8;edgeStyle=elbowEdgeStyle;elbow=vertical;curved=0;rounded=0;" edge="1" source="knWHT604KcFnY_2CCrJP-36" parent="1" target="knWHT604KcFnY_2CCrJP-33">
          <mxGeometry relative="1" as="geometry">
            <mxPoint x="400" y="285" as="targetPoint" />
            <Array as="points">
              <mxPoint x="510" y="280" />
            </Array>
          </mxGeometry>
        </mxCell>
        <mxCell id="knWHT604KcFnY_2CCrJP-40" value="写入当前模型" style="html=1;verticalAlign=bottom;endArrow=block;edgeStyle=elbowEdgeStyle;elbow=vertical;curved=0;rounded=0;" edge="1" target="knWHT604KcFnY_2CCrJP-39" parent="1" source="knWHT604KcFnY_2CCrJP-3">
          <mxGeometry relative="1" as="geometry">
            <mxPoint x="435" y="300" as="sourcePoint" />
            <Array as="points">
              <mxPoint x="480" y="310" />
            </Array>
          </mxGeometry>
        </mxCell>
        <mxCell id="knWHT604KcFnY_2CCrJP-41" value="返回状态码" style="html=1;verticalAlign=bottom;endArrow=open;dashed=1;endSize=8;edgeStyle=elbowEdgeStyle;elbow=vertical;curved=0;rounded=0;" edge="1" source="knWHT604KcFnY_2CCrJP-39" parent="1" target="knWHT604KcFnY_2CCrJP-33">
          <mxGeometry relative="1" as="geometry">
            <mxPoint x="435" y="375" as="targetPoint" />
            <Array as="points">
              <mxPoint x="460" y="370" />
              <mxPoint x="430" y="380" />
            </Array>
          </mxGeometry>
        </mxCell>
        <mxCell id="knWHT604KcFnY_2CCrJP-43" value="新任务创建" style="html=1;verticalAlign=bottom;endArrow=block;edgeStyle=elbowEdgeStyle;elbow=vertical;curved=0;rounded=0;" edge="1" target="knWHT604KcFnY_2CCrJP-42" parent="1" source="knWHT604KcFnY_2CCrJP-1">
          <mxGeometry relative="1" as="geometry">
            <mxPoint x="295" y="460" as="sourcePoint" />
            <Array as="points">
              <mxPoint x="318" y="460" />
            </Array>
          </mxGeometry>
        </mxCell>
        <mxCell id="knWHT604KcFnY_2CCrJP-44" value="完成新建任务" style="html=1;verticalAlign=bottom;endArrow=open;dashed=1;endSize=8;edgeStyle=elbowEdgeStyle;elbow=vertical;curved=0;rounded=0;" edge="1" source="knWHT604KcFnY_2CCrJP-42" parent="1" target="knWHT604KcFnY_2CCrJP-1">
          <mxGeometry relative="1" as="geometry">
            <mxPoint x="295" y="535" as="targetPoint" />
            <Array as="points">
              <mxPoint x="330" y="680" />
            </Array>
          </mxGeometry>
        </mxCell>
        <mxCell id="knWHT604KcFnY_2CCrJP-47" value="填写新任务信息" style="html=1;verticalAlign=bottom;endArrow=block;edgeStyle=elbowEdgeStyle;elbow=vertical;curved=0;rounded=0;" edge="1" target="knWHT604KcFnY_2CCrJP-46" parent="1">
          <mxGeometry relative="1" as="geometry">
            <mxPoint x="365.5" y="485" as="sourcePoint" />
            <Array as="points">
              <mxPoint x="310.5" y="485" />
            </Array>
          </mxGeometry>
        </mxCell>
        <mxCell id="knWHT604KcFnY_2CCrJP-48" value="返回表单" style="html=1;verticalAlign=bottom;endArrow=open;dashed=1;endSize=8;edgeStyle=elbowEdgeStyle;elbow=vertical;curved=0;rounded=0;" edge="1" source="knWHT604KcFnY_2CCrJP-46" parent="1">
          <mxGeometry x="-0.0423" y="-5" relative="1" as="geometry">
            <mxPoint x="370" y="560" as="targetPoint" />
            <Array as="points">
              <mxPoint x="240" y="560" />
              <mxPoint x="280.5" y="565" />
            </Array>
            <mxPoint as="offset" />
          </mxGeometry>
        </mxCell>
        <mxCell id="knWHT604KcFnY_2CCrJP-50" value="调用模型" style="html=1;verticalAlign=bottom;endArrow=block;edgeStyle=elbowEdgeStyle;elbow=vertical;curved=0;rounded=0;" edge="1" target="knWHT604KcFnY_2CCrJP-49" parent="1">
          <mxGeometry relative="1" as="geometry">
            <mxPoint x="380" y="570" as="sourcePoint" />
            <Array as="points">
              <mxPoint x="520" y="570" />
            </Array>
          </mxGeometry>
        </mxCell>
        <mxCell id="knWHT604KcFnY_2CCrJP-51" value="返回识别结果" style="html=1;verticalAlign=bottom;endArrow=open;dashed=1;endSize=8;edgeStyle=elbowEdgeStyle;elbow=vertical;curved=0;rounded=0;" edge="1" source="knWHT604KcFnY_2CCrJP-49" parent="1" target="knWHT604KcFnY_2CCrJP-42">
          <mxGeometry relative="1" as="geometry">
            <mxPoint x="565" y="645" as="targetPoint" />
            <Array as="points">
              <mxPoint x="505" y="610" />
            </Array>
          </mxGeometry>
        </mxCell>
        <mxCell id="knWHT604KcFnY_2CCrJP-55" value="写入识别结果" style="html=1;verticalAlign=bottom;endArrow=block;edgeStyle=elbowEdgeStyle;elbow=vertical;curved=0;rounded=0;" edge="1" target="knWHT604KcFnY_2CCrJP-54" parent="1" source="knWHT604KcFnY_2CCrJP-42">
          <mxGeometry x="-0.0033" relative="1" as="geometry">
            <mxPoint x="380" y="640" as="sourcePoint" />
            <Array as="points">
              <mxPoint x="430" y="640" />
              <mxPoint x="450" y="620" />
            </Array>
            <mxPoint as="offset" />
          </mxGeometry>
        </mxCell>
        <mxCell id="knWHT604KcFnY_2CCrJP-56" value="返回状态码" style="html=1;verticalAlign=bottom;endArrow=open;dashed=1;endSize=8;edgeStyle=elbowEdgeStyle;elbow=vertical;curved=0;rounded=0;" edge="1" source="knWHT604KcFnY_2CCrJP-54" parent="1" target="knWHT604KcFnY_2CCrJP-42">
          <mxGeometry relative="1" as="geometry">
            <mxPoint x="380" y="660" as="targetPoint" />
            <Array as="points">
              <mxPoint x="450" y="670" />
            </Array>
          </mxGeometry>
        </mxCell>
      </root>
    </mxGraphModel>
  </diagram>
</mxfile>
